{"title":"The Walking Dead S03E11 720p 440mb DubsTeam (like MrLss)","uid":8193358,"size":460849564,"categoryP":"video","categoryS":"hd___tv_shows","magnet":"?xt=urn:btih:2fd3a726eba2976772d56482b29953a0036758f2&amp;dn=The+Walking+Dead+S03E11+720p+440mb+DubsTeam+%28like+MrLss%29&amp;tr=udp%3A%2F%2Ftracker.openbittorrent.com%3A80&amp;tr=udp%3A%2F%2Fopen.demonii.com%3A1337&amp;tr=udp%3A%2F%2Ftracker.coppersurfer.tk%3A6969&amp;tr=udp%3A%2F%2Fexodus.desync.com%3A6969","seeders":1,"leechers":0,"uploader":"a-naughty-mouse","files":1,"time":1361837480,"description":"The Walking Dead S03E11 720p 440mb DubsTeam (like MrLss)\n &lt;a href=&quot;\nhttp://minirlss.net/&quot; rel=&quot;nofollow&quot; target=&quot;_NEW&quot;&gt;\nhttp://minirlss.net/&lt;/a&gt; is down, so here's an alternative to MrLss's 275mb to tide you over.\n\n=====================\n\n\nVideo\nID : 0\nFormat : AVC\nFormat/Info : Advanced Video Codec\nFormat profile : &lt;a class=&quot;__cf_email__&quot; href=&quot;/cdn-cgi/l/email-protection&quot; data-cfemail=&quot;8ec3efe7e0cec2bba0bf&quot;&gt;[email&amp;#160;protected]&lt;/a&gt;&lt;script cf-hash='f9e31' type=&quot;text/javascript&quot;&gt;\n/* &lt;![CDATA[ */!function(){try{var t=&quot;currentScript&quot;in document?document.currentScript:function(){for(var t=document.getElementsByTagName(&quot;script&quot;),e=t.length;e--;)if(t[e].getAttribute(&quot;cf-hash&quot;))return t[e]}();if(t&amp;&amp;t.previousSibling){var e,r,n,i,c=t.previousSibling,a=c.getAttribute(&quot;data-cfemail&quot;);if(a){for(e=&quot;&quot;,r=parseInt(a.substr(0,2),16),n=2;a.length-n;n+=2)i=parseInt(a.substr(n,2),16)^r,e+=String.fromCharCode(i);e=document.createTextNode(e),c.parentNode.replaceChild(e,c)}}}catch(u){}}();/* ]]&gt; */&lt;/script&gt;\nFormat settings, CABAC : Yes\nFormat settings, ReFrames : 1 frame\nCodec ID : H264\nDuration : 43mn 24s\nBit rate : 1 212 Kbps\nWidth : 1 280 pixels\nHeight : 720 pixels\nDisplay aspect ratio : 16:9\nFrame rate : 30.000 fps\nColor space : YUV\nChroma subsampling : 4:2:0\nBit depth : 8 bits\nScan type : Progressive\nBits/(Pixel*Frame) : 0.044\nStream size : 376 MiB (86%)\n\nAudio\nID : 1\nFormat : MPEG Audio\nFormat version : Version 1\nFormat profile : Layer 3\nCodec ID : 55\nCodec ID/Hint : MP3\nDuration : 43mn 24s\nBit rate mode : Constant\nBit rate : 192 Kbps\nChannel(s) : 2 channels\nSampling rate : 44.1 KHz\nCompression mode : Lossy\nStream size : 59.6 MiB (14%)\nAlignment : Split accross interleaves\nInterleave, duration : 34 ms (1.02 video frame)\nInterleave, preload duration : 127 ms\nWriting library : LAMELAME_MAJOR_VERSI","torrent":{"xt":"urn:btih:2fd3a726eba2976772d56482b29953a0036758f2","amp;dn":"The+Walking+Dead+S03E11+720p+440mb+DubsTeam+%28like+MrLss%29","amp;tr":["udp%3A%2F%2Ftracker.openbittorrent.com%3A80","udp%3A%2F%2Fopen.demonii.com%3A1337","udp%3A%2F%2Ftracker.coppersurfer.tk%3A6969","udp%3A%2F%2Fexodus.desync.com%3A6969"],"infoHash":"2fd3a726eba2976772d56482b29953a0036758f2","infoHashBuffer":{"type":"Buffer","data":[47,211,167,38,235,162,151,103,114,213,100,130,178,153,83,160,3,103,88,242]},"announce":[],"urlList":[]}}